<svg width="28" height="28" viewBox="0 0 28 28" fill="none" xmlns="http://www.w3.org/2000/svg">
<path d="M11.6665 15.1667C12.1675 15.8365 12.8068 16.3908 13.5408 16.7918C14.2749 17.1929 15.0866 17.4313 15.9209 17.4911C16.7553 17.5508 17.5927 17.4305 18.3764 17.1381C19.1601 16.8458 19.8718 16.3883 20.4632 15.7967L23.9632 12.2967C25.0258 11.1965 25.6137 9.72301 25.6004 8.19353C25.5871 6.66405 24.9737 5.20098 23.8921 4.11943C22.8106 3.03789 21.3475 2.4244 19.818 2.41111C18.2885 2.39782 16.815 2.98579 15.7148 4.04837L13.7082 6.04337" stroke="#22C55E" stroke-width="2" stroke-linecap="round" stroke-linejoin="round"/>
<path d="M16.3336 12.8334C15.8325 12.1636 15.1933 11.6094 14.4593 11.2083C13.7252 10.8073 12.9135 10.5688 12.0791 10.509C11.2448 10.4493 10.4074 10.5697 9.62366 10.862C8.83994 11.1544 8.12827 11.6119 7.5369 12.2034L4.0369 15.7034C2.97431 16.8036 2.38634 18.2771 2.39963 19.8066C2.41293 21.3361 3.02641 22.7992 4.10796 23.8807C5.18951 24.9623 6.65258 25.5757 8.18206 25.589C9.71154 25.6023 11.1851 25.0144 12.2852 23.9518L14.2802 21.9568" stroke="#22C55E" stroke-width="2" stroke-linecap="round" stroke-linejoin="round"/>
</svg>
